# xmcd CD database file
#
# Track frame offsets:
#	150
#	21721
#	63586
#	89534
#	113613
#	132392
#	150897
#	183217
#	216588
#	270169
#	285752
#	311595
#
# Disc length: 4468 seconds
#
# Revision: 0
# Processed by: cddbd v1.5.1PL0 Copyright (c) Steve Scherf et al.
# Submitted via: CDex 1.51
#
DISCID=a211720c
DTITLE=Blue Note by Bobby Flores - Soulmate
DYEAR=2005
DGENRE=Jazz
TTITLE0=Señorita Eula-Don Wilkerson
TTITLE1=It's Your Thing-Grant green
TTITLE2=Come raine Or Come Shine-Jimmy Smith
TTITLE3=You Want To Stop Loving You-Stanley Turrentine
TTITLE4=Marlowe-Bobby McFerrin
TTITLE5=Tracks Of My Tears-Dianne Reeves
TTITLE6=Wahoo-Duke Pearson
TTITLE7=Stay Still And Let Me Love You-Lonnie Smith
TTITLE8=Dancing In An Easy Groove-Lonnie Smith
TTITLE9=Daylight-Bobby Womack
TTITLE10=A Caddy For Daddy-Blue Note All Stars
TTITLE11=What's Going On-Ray Barreto
EXTD=YEAR: 2005
EXTT0=
EXTT1=
EXTT2=
EXTT3=
EXTT4=
EXTT5=
EXTT6=
EXTT7=
EXTT8=
EXTT9=
EXTT10=
EXTT11=
PLAYORDER=
